{
  "accessors": [
    {
      "bufferView": 2,
      "componentType": 5126,
      "count": 763,
      "max": [
        9.41781234741211,
        3.565464973449707,
        60.54378128051758
      ],
      "min": [
        -8.626639366149902,
        -5.7461700439453125,
        0.015799999237060547
      ],
      "type": "VEC3"
    },
    {
      "bufferView": 2,
      "byteOffset": 9156,
      "componentType": 5126,
      "count": 763,
      "max": [
        0.9999956488609314,
        1.0,
        0.9999905228614807
      ],
      "min": [
        -0.9999956488609314,
        -1.0,
        -0.998435378074646
      ],
      "type": "VEC3"
    },
    {
      "bufferView": 1,
      "componentType": 5126,
      "count": 763,
      "max": [
        0.9826850295066833,
        0.9973030090332031
      ],
      "min": [
        0.008302000351250172,
        0.000661000027321279
      ],
      "type": "VEC2"
    },
    {
      "bufferView": 0,
      "componentType": 5125,
      "count": 1548,
      "type": "SCALAR"
    }
  ],
  "asset": {
    "extras": {
      "author": "beijar (https://sketchfab.com/beijar)",
      "license": "CC-BY-4.0 (http://creativecommons.org/licenses/by/4.0/)",
      "source": "https://sketchfab.com/3d-models/handpainted-sword-fe9070e4db0646dd86b4c998876d8788",
      "title": "Handpainted Sword"
    },
    "generator": "Sketchfab-12.66.0",
    "version": "2.0"
  },
  "bufferViews": [
    {
      "buffer": 0,
      "byteLength": 6192,
      "name": "floatBufferViews",
      "target": 34963
    },
    {
      "buffer": 0,
      "byteLength": 6104,
      "byteOffset": 6192,
      "byteStride": 8,
      "name": "floatBufferViews",
      "target": 34962
    },
    {
      "buffer": 0,
      "byteLength": 18312,
      "byteOffset": 12296,
      "byteStride": 12,
      "name": "floatBufferViews",
      "target": 34962
    }
  ],
  "buffers": [
    {
      "byteLength": 30608,
      "uri": "scene.bin"
    }
  ],
  "extensionsUsed": [
    "KHR_materials_unlit"
  ],
  "images": [
    {
      "uri": "textures/material_0_baseColor.png"
    }
  ],
  "materials": [
    {
      "alphaMode": "BLEND",
      "doubleSided": true,
      "extensions": {
        "KHR_materials_unlit": {}
      },
      "name": "material_0",
      "pbrMetallicRoughness": {
        "baseColorTexture": {
          "index": 0
        },
        "metallicFactor": 0.0
      }
    }
  ],
  "meshes": [
    {
      "name": "Object_0",
      "primitives": [
        {
          "attributes": {
            "NORMAL": 1,
            "POSITION": 0,
            "TEXCOORD_0": 2
          },
          "indices": 3,
          "material": 0,
          "mode": 4
        }
      ]
    }
  ],
  "nodes": [
    {
      "children": [
        1
      ],
      "matrix": [
        -0.5927740099695136,
        0.07978343948309163,
        1.7715482299583226e-17,
        0.0,
        0.0003424117502267808,
        0.0025440469510696955,
        0.5981135542120093,
        0.0,
        0.07978269973157914,
        0.5927685554161926,
        -0.00256698648950033,
        0.0,
        3.8939998603382264e-07,
        -2.6000000374892813e-08,
        2.4800000275604355e-08,
        1.0
      ],
      "name": "Sketchfab_model"
    },
    {
      "children": [
        2
      ],
      "name": "4f88a00ce0ea48bf83e33680b9f71657.obj.cleaner.materialmerger.gles"
    },
    {
      "mesh": 0,
      "name": "Object_2"
    }
  ],
  "samplers": [
    {
      "magFilter": 9729,
      "minFilter": 9987,
      "wrapS": 10497,
      "wrapT": 10497
    }
  ],
  "scene": 0,
  "scenes": [
    {
      "name": "Sketchfab_Scene",
      "nodes": [
        0
      ]
    }
  ],
  "textures": [
    {
      "sampler": 0,
      "source": 0
    }
  ]
}
