<svg xmlns="http://www.w3.org/2000/svg" xmlns:xlink="http://www.w3.org/1999/xlink" viewBox="0 0 500 500" width="500" height="500" preserveAspectRatio="xMidYMid meet" style="width: 100%; height: 100%; transform: translate3d(0px, 0px, 0px); content-visibility: visible;"><defs><clipPath id="__lottie_element_2"><rect width="500" height="500" x="0" y="0"/></clipPath><g id="__lottie_element_25"><g transform="matrix(1,0,0,1,251.1409912109375,141.2855682373047)" opacity="1" style="display: block;"><g opacity="1" transform="matrix(1,0,0,1,0,0)"><path fill="rgb(58,51,71)" fill-opacity="1" d=" M-57.090999603271484,46.053001403808594 C-18.01099967956543,44.42300033569336 13.189000129699707,20.113000869750977 27.73900032043457,-14.04699993133545 C60.5260009765625,9.312999725341797 58.76499938964844,29.77400016784668 64.69499969482422,49.48400115966797 C79.07499694824219,29.83799934387207 76.25599670410156,-7.855125427246094 66.19200134277344,-22.595186233520508 C57.816001892089844,-34.86323547363281 42.5260009765625,-38.8405876159668 42.5260009765625,-38.8405876159668 C20.733999252319336,-43.88963317871094 -1.555999994277954,-36.41056442260742 -12.609000205993652,-31.67151641845703 C-17.201000213623047,-29.702499389648438 -22.533000946044922,-30.187503814697266 -26.628999710083008,-32.98052978515625 C-26.628999710083008,-32.98052978515625 -42.507999420166016,-43.808631896972656 -42.507999420166016,-43.808631896972656 C-48.441001892089844,-48.0396728515625 -56.856998443603516,-46.72566223144531 -61.071998596191406,-40.910606384277344 C-66.46600341796875,-33.46953582763672 -71.79399871826172,-22.327428817749023 -73.89099884033203,-8.977300643920898 C-78.82599639892578,22.43899917602539 -56.98400115966797,45.941001892089844 -56.98400115966797,45.941001892089844"/></g></g></g><g id="__lottie_element_43"><g transform="matrix(1,0,0,1,250,251.59857177734375)" opacity="1" style="display: block;"><g opacity="1" transform="matrix(1,0,0,1,0,0)"><path fill="rgb(255,0,0)" fill-opacity="1" d=" M-1.940000057220459,-157 C-1.940000057220459,-157 1.940000057220459,-157 1.940000057220459,-157 C35.67399978637695,-157 62.6870002746582,-129.031005859375 61.513999938964844,-95.31800079345703 C61.513999938964844,-95.31800079345703 59.57400131225586,-39.5369987487793 59.57400131225586,-39.5369987487793 C58.45800018310547,-7.441999912261963 32.1150016784668,18 0,18 C0,18 0,18 0,18 C-32.1150016784668,18 -58.45800018310547,-7.441999912261963 -59.57400131225586,-39.5369987487793 C-59.57400131225586,-39.5369987487793 -61.513999938964844,-95.31800079345703 -61.513999938964844,-95.31800079345703 C-62.6870002746582,-129.031005859375 -35.67399978637695,-157 -1.940000057220459,-157z"/></g></g></g><filter id="__lottie_element_63" filterUnits="objectBoundingBox" x="0%" y="0%" width="100%" height="100%"><feComponentTransfer in="SourceGraphic"><feFuncA type="table" tableValues="1.0 0.0"/></feComponentTransfer></filter><mask id="__lottie_element_43_2" mask-type="alpha"><g filter="url(#__lottie_element_63)"><rect width="500" height="500" x="0" y="0" fill="#ffffff" opacity="0"/><use xmlns:ns1="http://www.w3.org/1999/xlink" ns1:href="#__lottie_element_43"/></g></mask><filter id="__lottie_element_64" filterUnits="objectBoundingBox" x="0%" y="0%" width="100%" height="100%"><feComponentTransfer in="SourceGraphic"><feFuncA type="table" tableValues="1.0 0.0"/></feComponentTransfer></filter><mask id="__lottie_element_25_2" mask-type="alpha"><g filter="url(#__lottie_element_64)"><rect width="500" height="500" x="0" y="0" fill="#ffffff" opacity="0"/><use xmlns:ns2="http://www.w3.org/1999/xlink" ns2:href="#__lottie_element_25"/></g></mask></defs><g clip-path="url(#__lottie_element_2)"><g transform="matrix(1,0,0,1,250,251.59857177734375)" opacity="1" style="display: block;"><g opacity="1" transform="matrix(1,0,0,1,0,0)"><path stroke-linecap="round" stroke-linejoin="round" fill-opacity="0" stroke="rgb(99,109,120)" stroke-opacity="1" stroke-width="0" d=" M33.880001068115234,26.690000534057617 C33.880001068115234,26.690000534057617 41.5,26.690000534057617 41.5,26.690000534057617 C87.33999633789062,26.690000534057617 124.5,63.849998474121094 124.5,109.69000244140625 C124.5,109.69000244140625 124.5,137.4499969482422 124.5,137.4499969482422 C124.5,145.07000732421875 118.79000091552734,151.47999572753906 111.22000122070312,152.35000610351562 C111.22000122070312,152.35000610351562 82.18000030517578,155.7100067138672 82.18000030517578,155.7100067138672 C74.23999786376953,156.6300048828125 66.4800033569336,158.66000366210938 59.11000061035156,161.74000549316406 C40.20000076293945,169.64999389648438 20.110000610351562,173.6199951171875 0,173.66000366210938 C-0.10000000149011612,173.66000366210938 -0.20000000298023224,173.66000366210938 -0.30000001192092896,173.66000366210938 C-20.399999618530273,173.66000366210938 -40.5,169.72999572753906 -59.41999816894531,161.86000061035156 C-59.41999816894531,161.86000061035156 -59.619998931884766,161.77999877929688 -59.619998931884766,161.77999877929688 C-67.30999755859375,158.5800018310547 -75.41000366210938,156.47999572753906 -83.69000244140625,155.52000427246094 C-83.69000244140625,155.52000427246094 -111.22000122070312,152.35000610351562 -111.22000122070312,152.35000610351562 C-118.79000091552734,151.47999572753906 -124.5,145.07000732421875 -124.5,137.4499969482422 C-124.5,137.4499969482422 -124.5,109.69000244140625 -124.5,109.69000244140625 C-124.5,63.849998474121094 -87.33999633789062,26.690000534057617 -41.5,26.690000534057617 C-41.5,26.690000534057617 -33.869998931884766,26.690000534057617 -33.869998931884766,26.690000534057617"/><path fill="rgb(99,109,120)" fill-opacity="1" d=" M33.880001068115234,26.690000534057617 C33.880001068115234,26.690000534057617 41.5,26.690000534057617 41.5,26.690000534057617 C87.33999633789062,26.690000534057617 124.5,63.849998474121094 124.5,109.69000244140625 C124.5,109.69000244140625 124.5,137.4499969482422 124.5,137.4499969482422 C124.5,145.07000732421875 118.79000091552734,151.47999572753906 111.22000122070312,152.35000610351562 C111.22000122070312,152.35000610351562 82.18000030517578,155.7100067138672 82.18000030517578,155.7100067138672 C74.23999786376953,156.6300048828125 66.4800033569336,158.66000366210938 59.11000061035156,161.74000549316406 C40.20000076293945,169.64999389648438 20.110000610351562,173.6199951171875 0,173.66000366210938 C-0.10000000149011612,173.66000366210938 -0.20000000298023224,173.66000366210938 -0.30000001192092896,173.66000366210938 C-20.399999618530273,173.66000366210938 -40.5,169.72999572753906 -59.41999816894531,161.86000061035156 C-59.41999816894531,161.86000061035156 -59.619998931884766,161.77999877929688 -59.619998931884766,161.77999877929688 C-67.30999755859375,158.5800018310547 -75.41000366210938,156.47999572753906 -83.69000244140625,155.52000427246094 C-83.69000244140625,155.52000427246094 -111.22000122070312,152.35000610351562 -111.22000122070312,152.35000610351562 C-118.79000091552734,151.47999572753906 -124.5,145.07000732421875 -124.5,137.4499969482422 C-124.5,137.4499969482422 -124.5,109.69000244140625 -124.5,109.69000244140625 C-124.5,63.849998474121094 -87.33999633789062,26.690000534057617 -41.5,26.690000534057617 C-41.5,26.690000534057617 -33.869998931884766,26.690000534057617 -33.869998931884766,26.690000534057617"/></g></g><g transform="matrix(1,0,0,1,171.13800048828125,342.1475830078125)" opacity="0.5" style="mix-blend-mode: multiply; display: block;"><g opacity="1" transform="matrix(1,0,0,1,0,0)" style="mix-blend-mode: multiply;"><path fill="rgb(99,109,120)" fill-opacity="1" d=" M45.66999816894531,-56.72999954223633 C17.510000228881836,-49.61000061035156 -9.25,-31.020000457763672 -16.969999313354492,-17.920000076293945 C-26.450000762939453,-1.8300000429153442 -24.399999618530273,63.290000915527344 -24.399999618530273,63.290000915527344 C-24.399999618530273,63.290000915527344 -32.38999938964844,62.369998931884766 -32.38999938964844,62.369998931884766 C-39.959999084472656,61.5 -45.66999816894531,55.09000015258789 -45.66999816894531,47.470001220703125 C-45.66999816894531,47.470001220703125 -45.66999816894531,19.709999084472656 -45.66999816894531,19.709999084472656 C-45.66999816894531,-14.600000381469727 -24.860000610351562,-44.040000915527344 4.829999923706055,-56.689998626708984 C14.8100004196167,-60.939998626708984 25.799999237060547,-63.290000915527344 37.33000183105469,-63.290000915527344 C37.33000183105469,-63.290000915527344 44.959999084472656,-63.290000915527344 44.959999084472656,-63.290000915527344 C44.970001220703125,-62.02000045776367 45.04999923706055,-60.77000045776367 45.209999084472656,-59.540000915527344 C45.2400016784668,-59.22999954223633 45.279998779296875,-58.93000030517578 45.33000183105469,-58.630001068115234 C45.36000061035156,-58.43000030517578 45.38999938964844,-58.22999954223633 45.41999816894531,-58.040000915527344 C45.4900016784668,-57.599998474121094 45.58000183105469,-57.15999984741211 45.66999816894531,-56.72999954223633z"/></g></g><g transform="matrix(1,0,0,1,250,251.59857177734375)" opacity="1" style="display: block;"><g opacity="1" transform="matrix(1,0,0,1,0,0)"><path fill="rgb(243,195,185)" fill-opacity="1" d=" M33.869998931884766,7.84499979019165 C33.869998931884766,7.84499979019165 33.869998931884766,26.78499984741211 33.869998931884766,26.78499984741211 C33.869998931884766,45.415000915527344 18.6200008392334,60.654998779296875 -0.009999999776482582,60.654998779296875 C-18.639999389648438,60.654998779296875 -33.880001068115234,45.415000915527344 -33.880001068115234,26.78499984741211 C-33.880001068115234,26.78499984741211 -33.880001068115234,7.855000019073486 -33.880001068115234,7.855000019073486"/></g></g><g transform="matrix(1,0,0,1,249.97299194335938,272.5125732421875)" opacity="0.5" style="mix-blend-mode: multiply; display: block;"><g opacity="1" transform="matrix(1,0,0,1,0,0)" style="mix-blend-mode: multiply;"><path fill="rgb(243,195,185)" fill-opacity="1" d=" M33.875,-12.904999732971191 C33.875,-12.904999732971191 20.375,8.795000076293945 -13.864999771118164,10.024999618530273 C-20.225000381469727,10.255000114440918 -26.735000610351562,11.274999618530273 -33.165000915527344,12.904999732971191 C-33.255001068115234,12.475000381469727 -33.345001220703125,12.03499984741211 -33.415000915527344,11.595000267028809 C-33.44499969482422,11.404999732971191 -33.474998474121094,11.204999923706055 -33.505001068115234,11.005000114440918 C-33.55500030517578,10.704999923706055 -33.595001220703125,10.404999732971191 -33.625,10.095000267028809 C-33.78499984741211,8.864999771118164 -33.8650016784668,7.614999771118164 -33.875,6.34499979019165 C-33.875,6.34499979019165 -33.777000427246094,-41.14500045776367 -33.777000427246094,-41.14500045776367 C-24.14699935913086,-34.48500061035156 21.533000946044922,-47.345001220703125 34.09299850463867,-47.345001220703125 C33.77799987792969,-37.88199996948242 34.027000427246094,-28.131999969482422 33.875,-12.904999732971191z"/></g></g><g transform="matrix(1,0,0,1,250,251.59857177734375)" opacity="1" style="display: block;"><g opacity="1" transform="matrix(1,0,0,1,0,0)"><path stroke-linecap="round" stroke-linejoin="round" fill-opacity="0" stroke="rgb(99,109,120)" stroke-opacity="1" stroke-width="0" d=" M19,-152 C19,-152 61.89799880981445,-127.13200378417969 61.89799880981445,-127.13200378417969 C61.89799880981445,-127.13200378417969 59.57400131225586,-39.5369987487793 59.57400131225586,-39.5369987487793 C58.45800018310547,-7.441999912261963 32.1150016784668,18 0,18 C0,18 0,18 0,18 C-32.1150016784668,18 -58.45800018310547,-7.441999912261963 -59.57400131225586,-39.5369987487793 C-59.57400131225586,-39.5369987487793 -60.64400100708008,-79.66200256347656 -60.64400100708008,-79.66200256347656"/><path fill="rgb(243,195,185)" fill-opacity="1" d=" M19,-152 C19,-152 61.89799880981445,-127.13200378417969 61.89799880981445,-127.13200378417969 C61.89799880981445,-127.13200378417969 59.57400131225586,-39.5369987487793 59.57400131225586,-39.5369987487793 C58.45800018310547,-7.441999912261963 32.1150016784668,18 0,18 C0,18 0,18 0,18 C-32.1150016784668,18 -58.45800018310547,-7.441999912261963 -59.57400131225586,-39.5369987487793 C-59.57400131225586,-39.5369987487793 -60.64400100708008,-79.66200256347656 -60.64400100708008,-79.66200256347656"/></g></g><g transform="matrix(1,0,0,1,246.1409912109375,126.28556823730469)" opacity="1" style="display: block;"><g opacity="1" transform="matrix(1,0,0,1,0,0)"><path fill="rgb(172,104,54)" fill-opacity="1" d=" M-57.090999603271484,46.053001403808594 C-18.01099967956543,44.42300033569336 13.189000129699707,20.113000869750977 27.73900032043457,-14.04699993133545 C60.5260009765625,9.312999725341797 58.76499938964844,29.77400016784668 64.69499969482422,49.48400115966797 C79.07499694824219,29.83799934387207 76.25599670410156,-7.855125427246094 66.19200134277344,-22.595186233520508 C57.816001892089844,-34.86323547363281 42.5260009765625,-38.8405876159668 42.5260009765625,-38.8405876159668 C20.733999252319336,-43.88963317871094 -1.555999994277954,-36.41056442260742 -12.609000205993652,-31.67151641845703 C-17.201000213623047,-29.702499389648438 -22.533000946044922,-30.187503814697266 -26.628999710083008,-32.98052978515625 C-26.628999710083008,-32.98052978515625 -42.507999420166016,-43.808631896972656 -42.507999420166016,-43.808631896972656 C-48.441001892089844,-48.0396728515625 -56.856998443603516,-46.72566223144531 -61.071998596191406,-40.910606384277344 C-66.46600341796875,-33.46953582763672 -71.79399871826172,-22.327428817749023 -73.89099884033203,-8.977300643920898 C-78.82599639892578,22.43899917602539 -56.98400115966797,45.941001892089844 -56.98400115966797,45.941001892089844"/></g></g><g mask="url(#__lottie_element_25_2)" style="mix-blend-mode: multiply; display: block;"><g transform="matrix(1,0,0,1,246.1409912109375,126.28556823730469)" opacity="0.5"><g opacity="1" transform="matrix(1,0,0,1,0,0)"><path fill="rgb(172,104,54)" fill-opacity="1" d=" M-57.090999603271484,46.053001403808594 C-18.01099967956543,44.42300033569336 13.189000129699707,20.113000869750977 27.73900032043457,-14.04699993133545 C60.5260009765625,9.312999725341797 58.76499938964844,29.77400016784668 64.69499969482422,49.48400115966797 C79.07499694824219,29.83799934387207 76.25599670410156,-7.855125427246094 66.19200134277344,-22.595186233520508 C57.816001892089844,-34.86323547363281 42.5260009765625,-38.8405876159668 42.5260009765625,-38.8405876159668 C20.733999252319336,-43.88963317871094 -1.555999994277954,-36.41056442260742 -12.609000205993652,-31.67151641845703 C-17.201000213623047,-29.702499389648438 -22.533000946044922,-30.187503814697266 -26.628999710083008,-32.98052978515625 C-26.628999710083008,-32.98052978515625 -42.507999420166016,-43.808631896972656 -42.507999420166016,-43.808631896972656 C-48.441001892089844,-48.0396728515625 -56.856998443603516,-46.72566223144531 -61.071998596191406,-40.910606384277344 C-66.46600341796875,-33.46953582763672 -71.79399871826172,-22.327428817749023 -73.89099884033203,-8.977300643920898 C-78.82599639892578,22.43899917602539 -56.98400115966797,45.941001892089844 -56.98400115966797,45.941001892089844"/></g></g></g><g transform="matrix(1,0,0,1,248.3280029296875,362.8655700683594)" opacity="1" style="display: block;"><g opacity="1" transform="matrix(1,0,0,1,0,0)"><path stroke-linecap="round" stroke-linejoin="round" fill-opacity="0" stroke="rgb(18,19,48)" stroke-opacity="1" stroke-width="7" d=" M11,-16.211000442504883 C11,-16.211000442504883 -11,0 -11,0 C-11,0 11,16.211000442504883 11,16.211000442504883"/></g></g><g transform="matrix(1,0,0,1,332.5740051269531,362.8655700683594)" opacity="1" style="display: block;"><g opacity="1" transform="matrix(1,0,0,1,0,0)"><path stroke-linecap="round" stroke-linejoin="round" fill-opacity="0" stroke="rgb(18,19,48)" stroke-opacity="1" stroke-width="7" d=" M-11,-16.211000442504883 C-11,-16.211000442504883 11,0 11,0 C11,0 -11,16.211000442504883 -11,16.211000442504883"/></g></g><g transform="matrix(1,0,0,1,290.208984375,362.8655700683594)" opacity="1" style="display: block;"><g opacity="1" transform="matrix(1,0,0,1,0,0)"><path stroke-linecap="round" stroke-linejoin="round" fill-opacity="0" stroke="rgb(18,19,48)" stroke-opacity="1" stroke-width="7" d=" M5.251999855041504,-16.211000442504883 C5.251999855041504,-16.211000442504883 -5.251999855041504,16.211000442504883 -5.251999855041504,16.211000442504883"/></g></g><g mask="url(#__lottie_element_43_2)" style="display: block;"><g transform="matrix(1,0,0,1,250,251.59857177734375)" opacity="1"><g opacity="1" transform="matrix(1,0,0,1,0,0)"><path stroke-linecap="round" stroke-linejoin="round" fill-opacity="0" stroke="rgb(18,19,48)" stroke-opacity="1" stroke-width="7" d=" M33.869998931884766,7.84499979019165 C33.869998931884766,7.84499979019165 33.869998931884766,26.78499984741211 33.869998931884766,26.78499984741211 C33.869998931884766,45.415000915527344 18.6200008392334,60.654998779296875 -0.009999999776482582,60.654998779296875 C-18.639999389648438,60.654998779296875 -33.880001068115234,45.415000915527344 -33.880001068115234,26.78499984741211 C-33.880001068115234,26.78499984741211 -33.880001068115234,7.855000019073486 -33.880001068115234,7.855000019073486"/></g></g></g><g transform="matrix(1,0,0,1,250,251.59857177734375)" opacity="1" style="display: block;"><g opacity="1" transform="matrix(1,0,0,1,0,0)"><path stroke-linecap="round" stroke-linejoin="round" fill-opacity="0" stroke="rgb(18,19,48)" stroke-opacity="1" stroke-width="7" d=" M33.880001068115234,26.690000534057617 C33.880001068115234,26.690000534057617 41.5,26.690000534057617 41.5,26.690000534057617 C87.33999633789062,26.690000534057617 124.5,63.849998474121094 124.5,109.69000244140625 C124.5,109.69000244140625 124.5,137.4499969482422 124.5,137.4499969482422 C124.5,145.07000732421875 118.79000091552734,151.47999572753906 111.22000122070312,152.35000610351562 C111.22000122070312,152.35000610351562 82.18000030517578,155.7100067138672 82.18000030517578,155.7100067138672 C74.23999786376953,156.6300048828125 66.4800033569336,158.66000366210938 59.11000061035156,161.74000549316406 C40.20000076293945,169.64999389648438 20.110000610351562,173.6199951171875 0,173.66000366210938 C-0.10000000149011612,173.66000366210938 -0.20000000298023224,173.66000366210938 -0.30000001192092896,173.66000366210938 C-20.399999618530273,173.66000366210938 -40.5,169.72999572753906 -59.41999816894531,161.86000061035156 C-59.41999816894531,161.86000061035156 -59.619998931884766,161.77999877929688 -59.619998931884766,161.77999877929688 C-67.30999755859375,158.5800018310547 -75.41000366210938,156.47999572753906 -83.69000244140625,155.52000427246094 C-83.69000244140625,155.52000427246094 -111.22000122070312,152.35000610351562 -111.22000122070312,152.35000610351562 C-118.79000091552734,151.47999572753906 -124.5,145.07000732421875 -124.5,137.4499969482422 C-124.5,137.4499969482422 -124.5,109.69000244140625 -124.5,109.69000244140625 C-124.5,63.849998474121094 -87.33999633789062,26.690000534057617 -41.5,26.690000534057617 C-41.5,26.690000534057617 -33.869998931884766,26.690000534057617 -33.869998931884766,26.690000534057617"/></g></g><g transform="matrix(1,0,0,1,250,251.59857177734375)" opacity="1" style="display: block;"><g opacity="1" transform="matrix(1,0,0,1,0,0)"><path stroke-linecap="round" stroke-linejoin="round" fill-opacity="0" stroke="rgb(18,19,48)" stroke-opacity="1" stroke-width="7" d=" M60.89799880981445,-76.63200378417969 C60.89799880981445,-76.63200378417969 59.57400131225586,-39.5369987487793 59.57400131225586,-39.5369987487793 C58.45800018310547,-7.441999912261963 32.1150016784668,18 0,18 C0,18 0,18 0,18 C-32.1150016784668,18 -58.45800018310547,-7.441999912261963 -59.57400131225586,-39.5369987487793 C-59.57400131225586,-39.5369987487793 -60.64400100708008,-79.66200256347656 -60.64400100708008,-79.66200256347656"/></g></g><g transform="matrix(1,0,0,1,246.1409912109375,126.28556823730469)" opacity="1" style="display: block;"><g opacity="1" transform="matrix(1,0,0,1,0,0)"><path stroke-linecap="round" stroke-linejoin="round" fill-opacity="0" stroke="rgb(18,19,48)" stroke-opacity="1" stroke-width="7" d=" M-57.090999603271484,46.053001403808594 C-18.01099967956543,44.42300033569336 13.189000129699707,20.113000869750977 27.73900032043457,-14.04699993133545 C60.5260009765625,9.312999725341797 58.76499938964844,29.77400016784668 64.69499969482422,49.48400115966797 C79.07499694824219,29.83799934387207 76.25599670410156,-7.855125427246094 66.19200134277344,-22.595186233520508 C57.816001892089844,-34.86323547363281 42.5260009765625,-38.8405876159668 42.5260009765625,-38.8405876159668 C20.733999252319336,-43.88963317871094 -1.555999994277954,-36.41056442260742 -12.609000205993652,-31.67151641845703 C-17.201000213623047,-29.702499389648438 -22.533000946044922,-30.187503814697266 -26.628999710083008,-32.98052978515625 C-26.628999710083008,-32.98052978515625 -42.507999420166016,-43.808631896972656 -42.507999420166016,-43.808631896972656 C-48.441001892089844,-48.0396728515625 -56.856998443603516,-46.72566223144531 -61.071998596191406,-40.910606384277344 C-66.46600341796875,-33.46953582763672 -71.79399871826172,-22.327428817749023 -73.89099884033203,-8.977300643920898 C-78.82599639892578,22.43899917602539 -56.98400115966797,45.941001892089844 -56.98400115966797,45.941001892089844"/></g></g><g transform="matrix(1,0,0,1,212.80299377441406,186.12457275390625)" opacity="1" style="display: block;"><path fill="rgb(132,132,132)" fill-opacity="1" d=" M23.243000030517578,14.473999977111816 C23.243000030517578,14.473999977111816 -23.243000030517578,14.473999977111816 -23.243000030517578,14.473999977111816 C-23.243000030517578,14.473999977111816 -23.243000030517578,-14.473999977111816 -23.243000030517578,-14.473999977111816 C-23.243000030517578,-14.473999977111816 23.243000030517578,-14.473999977111816 23.243000030517578,-14.473999977111816 C23.243000030517578,-14.473999977111816 23.243000030517578,14.473999977111816 23.243000030517578,14.473999977111816z"/><g opacity="1" transform="matrix(1,0,0,1,0,0)"><path stroke-linecap="round" stroke-linejoin="round" fill-opacity="0" stroke="rgb(18,19,48)" stroke-opacity="1" stroke-width="7" d=" M23.243000030517578,14.473999977111816 C23.243000030517578,14.473999977111816 -23.243000030517578,14.473999977111816 -23.243000030517578,14.473999977111816 C-23.243000030517578,14.473999977111816 -23.243000030517578,-14.473999977111816 -23.243000030517578,-14.473999977111816 C-23.243000030517578,-14.473999977111816 23.243000030517578,-14.473999977111816 23.243000030517578,-14.473999977111816 C23.243000030517578,-14.473999977111816 23.243000030517578,14.473999977111816 23.243000030517578,14.473999977111816z"/></g></g><g transform="matrix(1,0,0,1,287.23101806640625,186.12457275390625)" opacity="1" style="display: block;"><path fill="rgb(132,132,132)" fill-opacity="1" d=" M23.243000030517578,14.473999977111816 C23.243000030517578,14.473999977111816 -23.243000030517578,14.473999977111816 -23.243000030517578,14.473999977111816 C-23.243000030517578,14.473999977111816 -23.243000030517578,-14.473999977111816 -23.243000030517578,-14.473999977111816 C-23.243000030517578,-14.473999977111816 23.243000030517578,-14.473999977111816 23.243000030517578,-14.473999977111816 C23.243000030517578,-14.473999977111816 23.243000030517578,14.473999977111816 23.243000030517578,14.473999977111816z"/><g opacity="1" transform="matrix(1,0,0,1,0,0)"><path stroke-linecap="round" stroke-linejoin="round" fill-opacity="0" stroke="rgb(18,19,48)" stroke-opacity="1" stroke-width="7" d=" M23.243000030517578,14.473999977111816 C23.243000030517578,14.473999977111816 -23.243000030517578,14.473999977111816 -23.243000030517578,14.473999977111816 C-23.243000030517578,14.473999977111816 -23.243000030517578,-14.473999977111816 -23.243000030517578,-14.473999977111816 C-23.243000030517578,-14.473999977111816 23.243000030517578,-14.473999977111816 23.243000030517578,-14.473999977111816 C23.243000030517578,-14.473999977111816 23.243000030517578,14.473999977111816 23.243000030517578,14.473999977111816z"/></g></g><g transform="matrix(1,0,0,1,250.01699829101562,183.12457275390625)" opacity="1" style="display: block;"><g opacity="1" transform="matrix(1,0,0,1,0,0)"><path stroke-linecap="round" stroke-linejoin="round" fill-opacity="0" stroke="rgb(18,19,48)" stroke-opacity="1" stroke-width="7" d=" M13.970999717712402,0 C13.970999717712402,0 -13.970999717712402,0 -13.970999717712402,0"/></g></g><g class="com" style="display: none;"><g><path/></g><g><path/></g><g><path/></g><g><path/></g><g><path/></g><g><path/></g><g><path/></g><g><path/></g><g><path/></g><g><path/></g><g><path/></g><g><path/></g></g></g></svg>